<?xml version="1.0" encoding="iso-8859-1"?>
<?xml-stylesheet type="text/css" href="../../pages/main/style.css" ?>
<svg width="201" height="62" viewBox="0 0 201 62" fill="none" xmlns="http://www.w3.org/2000/svg">
<path d="M168.243 61.8042C172.093 61.3963 174.945 59.9813 177.887 57.0182C182.919 51.9501 184.049 45.115 180.906 38.7579C177.736 32.3478 170.479 28.6757 163.625 30.014C157.691 31.1728 152.774 35.6993 151.013 41.625C150.375 43.7706 150.37 47.8741 151.003 49.9513C151.923 52.9734 153.016 54.808 155.21 57.0182C158.908 60.7423 163.242 62.334 168.243 61.8042H168.243ZM162.531 58.3382C158.751 57.1378 155.766 54.3419 154.303 50.631C151.392 43.2454 155.696 35.046 163.541 33.0315C167.957 31.8976 172.401 33.2082 175.807 36.6486C177.922 38.7848 178.918 40.6356 179.507 43.5249C180.479 48.2876 178.364 53.5477 174.316 56.436C172.845 57.4857 170.826 58.4256 169.285 58.7784C167.684 59.1452 164.397 58.931 162.531 58.3382V58.3382ZM171.067 57.278C173.045 56.4648 174.4 55.5102 175.822 53.9281C177.145 52.4567 177.226 52.1814 176.333 52.1814C174.665 52.1814 171.101 50.1998 168.719 47.9475C167.984 47.2522 167.925 47.0937 168.188 46.5168C168.478 45.8804 168.523 45.8714 170.579 46.045C173.629 46.3026 175.974 46.8942 177.314 47.7444C177.962 48.1553 178.561 48.4225 178.646 48.3381C178.937 48.047 178.792 43.9672 178.444 42.6676C177.986 40.9548 176.763 38.5668 176.444 38.7636C176.306 38.849 176.193 39.0476 176.193 39.2048C176.193 40.2253 173.368 42.6307 170.299 44.2236L168.445 45.1857L167.756 44.5471L167.067 43.9085L167.736 41.6009C168.549 38.7955 169.724 36.5232 170.891 35.4985C171.37 35.0779 171.762 34.687 171.762 34.6298C171.762 34.5726 171.029 34.3164 170.133 34.0603C168.036 33.4613 165.055 33.4629 162.951 34.0643L161.309 34.5336L162.031 35.0071C163.504 35.9736 164.659 38.0157 165.633 41.3788C165.993 42.6216 166.287 43.7133 166.286 43.8048C166.286 43.8963 165.946 44.1637 165.532 44.3992C164.81 44.8097 164.733 44.8 163.644 44.1609C160.826 42.5072 158.599 40.47 157.83 38.841L157.253 37.6206L156.296 39.0749C155.032 40.9934 154.298 43.4326 154.298 45.7117V47.5277L154.991 46.9829C156.161 46.0622 158.342 45.586 161.509 45.5594C163.109 45.546 164.478 45.594 164.55 45.6659C164.623 45.7379 164.76 46.1079 164.855 46.4883C165.012 47.1135 164.874 47.2851 163.413 48.2768C160.848 50.0192 158.572 50.9599 156.861 50.9861L155.383 51.0087L156.067 52.27C157.188 54.3339 160.212 56.7834 162.509 57.4867C162.998 57.6367 163.03 57.5236 163.04 55.6308C163.051 53.4887 163.481 52.0329 164.976 49.0703C165.663 47.7091 165.84 47.5332 166.451 47.5984C167.303 47.6893 167.628 48.2723 168.496 51.2678C169.189 53.6591 169.369 56.5074 168.885 57.4117C168.511 58.1109 169.134 58.0728 171.067 57.2782V57.278ZM40.1224 59.8785C43.216 59.2937 46.1386 57.7042 48.4741 55.3363C51.692 52.0738 53.1657 48.5683 53.1657 44.1765C53.1657 39.4547 51.7522 36.0918 48.3531 32.7274C45.8955 30.2948 43.4937 28.9659 40.344 28.296C35.0425 27.1685 29.1301 29.1412 25.3071 33.3133C18.0537 41.2292 20.5703 53.9439 30.2979 58.528C33.5623 60.0664 36.7849 60.5094 40.1224 59.8785V59.8785ZM32.6187 56.3926C30.4634 55.5737 29.1033 54.6589 27.5561 52.9877C21.9536 46.9364 23.1187 37.6188 30.0527 33.0207C36.4615 28.7709 45.5413 31.2311 48.9186 38.1324C49.9741 40.2892 50.285 41.6431 50.2891 44.1012C50.2961 48.5015 48.1977 52.459 44.5117 54.995C41.1884 57.2815 36.4298 57.8407 32.6187 56.3926V56.3926ZM41.7845 55.4534C42.6209 55.1095 43.7769 54.5013 44.3532 54.1019C45.346 53.4139 47.6921 50.9467 47.6921 50.5907C47.6921 50.4993 47.1936 50.3678 46.5843 50.2983C45.975 50.2288 44.9278 49.9213 44.2572 49.6148C43.1276 49.0986 39.0188 46.1815 38.7041 45.6723C38.6279 45.5491 38.6804 45.1463 38.8206 44.7774C39.0721 44.1161 39.1044 44.1088 41.1032 44.2612C44.7883 44.5422 47.3274 45.2965 48.6476 46.5025L49.2123 47.0182L49.3975 45.5355C49.7296 42.8777 49.0788 39.9027 47.6586 37.5855C47.1051 36.6823 47.0977 36.6795 46.8729 37.287C46.2453 38.9836 44.242 40.7233 40.9146 42.4614L39.0751 43.4222L38.3868 42.7339L37.6984 42.0455L38.2877 40.0107C39.0897 37.2417 40.3258 34.84 41.4905 33.7877C42.0236 33.3061 42.3761 32.8615 42.2739 32.7998C41.4951 32.3291 38.9048 31.8506 37.1357 31.8506C35.2517 31.8506 32.3137 32.4229 32.3137 32.7899C32.3137 32.8652 32.6679 33.2249 33.1008 33.5892C34.4689 34.7404 35.5185 36.8815 36.4733 40.4693L36.9288 42.1808L36.1562 42.6242C35.398 43.0593 35.3584 43.0522 34.0441 42.2452C30.9036 40.3169 28.1433 37.5674 28.1433 36.3673C28.1433 36.1769 28.0535 36.0211 27.9436 36.0211C27.5864 36.0211 26.0337 38.6169 25.55 40.0227C24.9989 41.6245 24.6357 44.3578 24.8741 45.109C25.0374 45.6235 25.0561 45.6219 25.9468 45.0174C27.2092 44.1608 28.9804 43.8406 32.4569 43.8406C34.8596 43.8406 35.4415 43.9127 35.4415 44.2103C35.4415 44.4136 35.5087 44.7552 35.591 44.9695C35.6936 45.2368 35.2378 45.7005 34.1386 46.4469C31.7236 48.0869 29.4026 49.0834 27.6216 49.2449C26.7617 49.3229 26.0581 49.4397 26.0581 49.5045C26.0581 49.5694 26.5425 50.3129 27.1346 51.157C28.5437 53.1659 31.0158 55.0631 33.0367 55.6867C33.5981 55.8599 33.621 55.817 33.471 54.8726C33.252 53.494 33.9168 50.8457 35.1543 48.1671C36.1291 46.0571 36.2371 45.9258 36.9978 45.9258C37.7135 45.9258 37.8666 46.0673 38.337 47.1639C39.5521 49.9961 40.1692 53.9737 39.6184 55.4226C39.2877 56.2924 39.7287 56.2987 41.7845 55.4534V55.4534ZM146.446 54.4361C146.607 54.2427 146.855 52.6299 146.999 50.8522C147.922 39.421 151.418 32.6376 158.077 29.3575C161.672 27.5871 163.091 27.295 168.113 27.2919C171.963 27.2899 172.601 27.3539 174.201 27.9063C181.5 30.4261 185.57 38.5419 185.575 50.5883L185.576 54.3386L187.335 54.169C190.583 53.8561 196.281 52.6599 196.74 52.1949C196.979 51.9524 197.811 51.6129 198.589 51.4405C200.765 50.958 201.302 50.2493 200.016 49.5607C199.416 49.2397 199.353 49.0788 199.475 48.1691C199.551 47.6034 199.799 47.0369 200.025 46.9103C200.3 46.7564 200.385 46.4768 200.282 46.0666C200.197 45.7291 200.277 45.1782 200.458 44.8423C200.701 44.3923 200.77 42.7568 200.722 38.6276C200.666 33.8103 200.595 32.955 200.219 32.5348C199.688 31.9415 196.662 29.8983 194.699 28.807C184.179 22.96 163.485 18.364 139.11 16.4613C134.664 16.1142 134.526 16.061 116.525 7.74901C105.82 2.80593 95.8515 0.659036 82.3586 0.390713C67.3808 0.0928544 62.1645 0.96373 25.6671 9.85545C19.1541 11.4422 14.1316 12.5397 13.6772 12.4754C13.2472 12.4145 11.7366 12.0574 10.3205 11.6817C7.5902 10.9574 4.99477 10.7929 4.47627 11.3114C3.95723 11.8304 4.11415 12.6435 5.1777 14.9455L6.19192 17.1408L8.50099 18.2231C11.1028 19.4426 12.4585 19.8572 13.8514 19.8593C15.3209 19.8613 15.6321 20.07 15.6321 21.0525C15.6321 22.1133 14.4602 23.5599 12.9955 24.3071C11.823 24.9053 9.03628 24.9822 5.40573 24.5166L3.09389 24.2201L2.33796 24.9443C1.30242 25.9365 0.72083 28.5395 0.736642 32.1113C0.751758 35.5309 1.38722 38.1546 2.98797 41.4067C3.63451 42.7202 4.16349 44.0314 4.16349 44.3204C4.16349 44.6094 4.35293 45.0354 4.58448 45.2669C5.69311 46.3755 10.112 48.058 15.8498 49.556C18.426 50.2286 18.7825 50.2709 18.6338 49.886C18.54 49.6432 18.397 48.037 18.316 46.3167C17.8835 37.1233 20.8791 30.6469 26.9372 27.6784C30.3002 26.0304 31.7933 25.7342 36.7448 25.733C41.6533 25.732 43.7103 26.1602 47.0287 27.8748C49.637 29.2225 52.7029 32.3516 54.1166 35.1088C56.27 39.3084 57.0774 42.85 57.2663 48.9232L57.4041 53.3543L74.1169 53.3805C90.3832 53.4059 102.694 53.6265 131.361 54.4062C139.03 54.6148 145.497 54.786 145.73 54.7867C145.963 54.7875 146.285 54.6296 146.446 54.4362V54.4361ZM99.4312 51.914C75.2698 51.4276 59.567 51.0137 59.1836 50.8533C58.0678 50.3863 59.1046 49.8568 62.1761 49.325C67.9466 48.3258 66.3689 48.3126 108.293 49.7108C132.719 50.5254 138.44 50.7928 141.602 51.2674C146.173 51.9536 146.362 52.7004 141.967 52.7072C140.363 52.7102 121.222 52.3528 99.4312 51.914ZM121.195 47.8798C105.494 47.4332 86.9352 46.2205 81.4072 45.2799C77.9503 44.6916 75.7323 43.1958 73.8809 40.204C72.3947 37.8023 70.8125 33.1707 70.4933 30.2867C70.341 28.9116 70.4025 29.0071 72.002 32.6326C74.6829 38.7091 74.8065 38.9239 76.7398 40.8692C79.8763 44.0249 84.0979 45.5949 90.0165 45.8065C105.906 46.3745 128.55 46.9986 128.677 46.872C129.14 46.4092 129.558 42.5536 129.685 37.585C129.764 34.5028 129.895 31.6877 129.977 31.3294L130.125 30.6777L130.371 31.4597C130.885 33.0957 130.474 47.1256 129.885 48.0794C129.81 48.1999 128.968 48.2368 128.014 48.1615C127.059 48.0861 123.991 47.9594 121.195 47.8798V47.8798ZM185.008 37.3895C182.255 31.4161 177.006 27.3252 170.678 26.221C163.541 24.9756 157.083 27.2996 151.703 33.0494C149.905 34.9709 149.876 34.8997 151.533 32.6326C154.438 28.6581 158.401 26.0317 162.749 25.1998C166.674 24.4487 169.905 24.8405 175.802 26.7828C179.745 28.0816 181.984 28.4809 182.316 27.9445C182.594 27.4935 182.227 27.3105 178.669 26.1267C173.254 24.3253 167.709 23.127 160.032 22.0988C155.618 21.5076 155.582 21.4987 157.463 21.4601C162.455 21.3578 173.756 23.2248 180.478 25.2621C182.449 25.8596 182.952 26.1301 183.736 27.016C186.941 30.6358 189.64 32.6229 192.452 33.4342C196.611 34.6341 197.891 35.077 198.408 35.4964C199.311 36.2272 198.755 36.5424 196.563 36.5424C194.326 36.5424 192.109 37.034 190.137 37.9672C189.228 38.3976 188.342 38.5907 187.206 38.6058L185.579 38.6275L185.008 37.3894V37.3895ZM16.0753 37.9436C15.6165 37.7107 14.4787 36.7912 13.5469 35.9003C10.2953 32.7913 8.10643 31.8047 2.53441 30.9367L1.55698 30.7844V29.3543C1.55698 28.0753 2.0954 26.1163 2.44693 26.1163C2.52092 26.1163 4.31566 26.695 6.43514 27.4023C11.6168 29.1314 15.0702 29.8277 18.5522 29.8452L21.3419 29.8592L20.451 31.073C19.236 32.7281 18.0316 35.3462 17.8233 36.7852C17.562 38.5895 17.4693 38.651 16.0753 37.9435V37.9436ZM56.9463 37.3277C56.5193 35.9824 53.603 32.0787 51.6673 30.2614C48.7059 27.4812 44.6511 25.5196 40.7849 24.9969C40.2908 24.9301 40.4914 24.8768 41.3296 24.8521C43.0417 24.8017 45.9601 25.5555 49.1695 26.8769L51.7211 27.9275L52.5086 27.1815C55.6542 24.2011 58.2761 24.1457 101.386 26.1494C123.373 27.1712 122.138 27.2811 95.9124 26.6365C90.5365 26.5043 81.2738 26.3149 75.3288 26.2156L64.5195 26.0349L65.2286 26.8776C67.1078 29.1109 65.1081 32.4076 59.431 36.4353C58.3505 37.2018 57.3864 37.8328 57.2885 37.8373C57.1907 37.8423 57.0367 37.6126 56.9463 37.3277V37.3277ZM195.094 32.8479C192.532 32.0082 189.809 30.5904 187.811 29.0568C185.941 27.6211 185.991 27.4097 188.105 27.8161C191.643 28.4963 195.137 30.0255 197.631 31.9843C200.29 34.0727 199.574 34.3165 195.094 32.8479ZM133.316 30.5293C132.742 30.3674 132.068 30.0525 131.817 29.8295C130.984 29.089 131.382 27.1462 132.591 26.0522C133.055 25.6325 133.533 25.6177 138.938 25.8552C146.846 26.2027 149.867 26.6359 149.867 27.4227C149.867 27.7772 147.291 29.769 146.218 30.2442C145.716 30.4665 144.661 30.7342 143.872 30.8391C141.892 31.1026 134.587 30.8882 133.316 30.5293V30.5293ZM147.26 28.0712C147.26 27.7332 146.29 27.6802 140.093 27.6802C133.895 27.6802 132.925 27.7332 132.925 28.0712C132.925 28.4093 133.895 28.4622 140.093 28.4622C146.29 28.4622 147.26 28.4093 147.26 28.0712ZM75.5635 22.8364C75.3149 22.5368 75.2961 22.3044 75.4948 21.9893C75.7316 21.6139 76.3269 21.555 79.8823 21.555C83.3847 21.555 84.0354 21.6175 84.2613 21.9757C84.4073 22.2071 84.4531 22.5883 84.3631 22.8228C84.1217 23.4517 76.0845 23.4641 75.5635 22.8364L75.5635 22.8364ZM112.421 19.0828C110.007 18.7983 97.8282 17.9198 85.356 17.1305C63.5817 15.7526 62.4892 15.6591 57.897 14.7806C55.2666 14.2775 53.0228 13.8658 52.9106 13.8658C52.4831 13.8658 48.865 9.36808 48.865 8.83662C48.865 6.70257 57.4964 4.83505 71.4113 3.95844C78.8729 3.48836 86.3709 3.28793 89.2131 3.48257C93.7028 3.79004 99.001 5.01424 105.025 7.1361C115.232 10.7313 128.96 17.9531 128.132 19.292C127.802 19.8254 117.565 19.6891 112.421 19.0828V19.0828ZM124.601 17.7491C123.223 16.9093 115.396 13.0215 112.333 11.6558C103.926 7.90681 96.9439 5.59484 91.4068 4.7262C88.8213 4.32059 75.6489 4.55587 69.717 5.11363C58.3277 6.18452 51.8625 7.84406 51.8625 9.69667C51.8625 10.4539 53.3702 12.2626 54.4684 12.8229C55.0453 13.1172 56.4251 13.4728 57.5345 13.613C58.6439 13.7533 60.2051 13.9861 61.0037 14.1305C62.7823 14.4521 74.5981 15.4575 74.755 15.3006C74.905 15.1506 73.8845 12.6045 72.7861 10.3888C71.5694 7.93412 71.6669 7.56001 73.6268 7.16325C79.2084 6.03329 88.8005 6.04631 94.2182 7.19119C99.2381 8.25202 104.39 10.1481 107.06 11.9174C107.098 11.9428 106.896 12.4796 106.609 13.1102C105.877 14.7243 105.911 16.3294 106.694 17.1126C107.514 17.9325 109.567 18.1786 111.81 17.726L113.503 17.3846L113.729 16.1443C113.908 15.16 113.867 14.7708 113.531 14.258C112.788 13.1239 110.659 12.2857 108.445 12.2551C107.261 12.2388 107.026 11.8796 108.034 11.6265C108.944 11.3982 110.371 11.7005 112.173 12.503C113.907 13.2759 114.419 14.0788 114.419 16.0311C114.419 17.0031 114.517 17.2156 115.091 17.4771C116.172 17.9695 119.005 18.2862 122.368 18.2907L125.496 18.2947L124.601 17.7491ZM63.8524 13.324C61.4225 12.7969 59.7125 11.7136 60.025 10.8993C60.1664 10.5309 63.8463 9.17407 64.7042 9.17407C65.5682 9.17407 66.9425 12.2313 66.585 13.3578C66.4719 13.7141 66.2528 13.832 65.8547 13.7509C65.5419 13.6872 64.6409 13.4951 63.8524 13.324ZM103.784 16.9415C103.4 16.5573 103.377 15.3114 103.741 14.6306C103.953 14.2355 103.926 14.1264 103.617 14.1264C103.122 14.1264 102.535 15.035 102.299 16.1656L102.118 17.0318L99.4714 16.8703C98.0157 16.7815 93.3906 16.4709 89.1935 16.1802C84.9964 15.8895 81.4215 15.6986 81.2493 15.756C81.0771 15.8134 82.869 16.0621 85.2313 16.3086C94.1656 17.2411 104.434 17.5914 103.784 16.9415V16.9415ZM80.4688 15.5107C80.218 15.4451 79.8075 15.4451 79.5566 15.5107C79.3057 15.5762 79.5109 15.6299 80.0127 15.6299C80.5145 15.6299 80.7197 15.5763 80.4688 15.5107V15.5107Z" fill="black"/>
</svg>
