<?xml version="1.0" encoding="iso-8859-1"?>
<?xml-stylesheet type="text/css" href="../../pages/main/style.css" ?>
<svg width="200" height="72" viewBox="0 0 200 72" fill="none" xmlns="http://www.w3.org/2000/svg">
<path d="M167.302 71.3554C170.826 70.7297 173.494 69.3684 176.119 66.8576C182.902 60.3695 183.042 50.2439 176.44 43.6108C173.073 40.2279 169.408 38.6811 164.761 38.6811C161.854 38.6811 159.611 39.2273 157.089 40.5496C148.479 45.0635 145.663 56.0239 151.032 64.1174C152.211 65.8942 154.825 68.3218 156.71 69.3911C159.703 71.0888 164.155 71.9144 167.302 71.3554ZM160.64 67.3302C158.43 66.6364 157.337 65.9787 155.429 64.1941C153.223 62.1301 151.864 59.5559 151.419 56.5935C150.372 49.6357 155.3 42.957 162.42 41.6847C167.332 40.8069 172.632 43.1016 175.479 47.3388C179.99 54.0521 177.606 62.9778 170.353 66.5321C167.171 68.0912 163.917 68.3586 160.64 67.3302ZM167.096 66.3255C169.382 65.8289 171.188 64.8343 172.901 63.1292C179.46 56.5985 176.464 45.5579 167.498 43.2226C160.65 41.4389 153.979 45.8283 152.763 52.9176C151.7 59.1182 156.05 65.2159 162.396 66.4194C164.219 66.7652 165.158 66.7465 167.096 66.3256V66.3255ZM162.005 65.203C161.481 64.9841 161.052 64.6632 161.052 64.4899C161.052 64.0365 164.136 58.1843 164.375 58.1843C164.735 58.1843 167.968 64.2546 167.817 64.6471C167.477 65.5332 163.667 65.8976 162.005 65.203V65.203ZM156.536 61.7248C155.355 60.3207 154.695 58.7962 154.788 57.6843L154.872 56.6735L158.511 56.5968C160.513 56.5547 162.151 56.6085 162.151 56.7164C162.151 56.8242 161.261 58.3022 160.173 60.0007C157.999 63.394 157.957 63.4137 156.536 61.7248H156.536ZM168.637 59.8214C167.6 58.1534 166.798 56.7488 166.855 56.7001C166.912 56.6514 168.66 56.6725 170.741 56.7472L174.524 56.8829L174.349 57.877C174.155 58.9806 173.365 60.8389 172.811 61.4932C172.331 62.0613 171.163 62.8541 170.808 62.8541C170.65 62.8541 169.673 61.4894 168.637 59.8214V59.8214ZM163.357 55.4828C162.682 54.1216 163.999 52.5924 165.325 53.1968C166.372 53.6736 166.731 54.7026 166.157 55.579C165.771 56.1678 165.513 56.2779 164.682 56.2084C163.95 56.1472 163.588 55.9489 163.357 55.4828V55.4828ZM154.265 52.8156C154.459 50.9389 155.352 49.0289 156.378 48.2986L157.15 47.7485L159.507 50.5466C160.803 52.0855 161.797 53.4104 161.717 53.4907C161.55 53.6574 156.788 54.2486 155.177 54.3027L154.108 54.3386L154.265 52.8156ZM167.645 53.6149C167.645 53.3053 171.578 47.1966 171.777 47.1966C172.163 47.1966 174.29 49.7263 174.671 50.638C174.886 51.1528 175.062 52.0032 175.062 52.5277C175.062 53.4274 175.003 53.4874 174.032 53.5891C172.23 53.7775 167.645 53.796 167.645 53.6149V53.6149ZM162.563 48.7167C161.557 46.9844 160.807 45.4487 160.896 45.304C161.244 44.7412 163.863 44.1059 165.188 44.2629C166.56 44.4253 167.647 44.9327 167.642 45.4085C167.639 45.7694 164.693 51.8664 164.522 51.8664C164.45 51.8664 163.569 50.449 162.563 48.7167ZM42.8663 71.3554C52.2473 69.6895 58.5345 60.6923 56.5502 51.7732C55.8042 48.4202 54.4608 46.0323 51.8875 43.4851C49.4927 41.1148 47.374 39.8676 44.4465 39.1051C42.4003 38.5721 38.3227 38.5632 36.3416 39.0874C30.6205 40.601 25.8619 45.3602 24.3882 51.0423C23.8104 53.2699 23.81 56.956 24.3873 59.1204C25.4102 62.9556 28.2131 66.7793 31.5431 68.8824C34.8603 70.9774 39.4054 71.97 42.8664 71.3554L42.8663 71.3554ZM36.3416 67.3466C33.4765 66.5459 30.3525 64.1372 28.7335 61.4806C26.551 57.8996 26.4131 52.4246 28.4068 48.5103C28.6928 47.9487 29.6797 46.6845 30.5998 45.7008C33.6091 42.4839 37.7981 41.0008 42.0208 41.6573C51.6197 43.1496 56.4631 53.815 51.2234 61.9217C49.8671 64.0203 48.2308 65.4339 45.8185 66.5912C42.6874 68.0933 39.8286 68.3211 36.3416 67.3466ZM43.0579 66.2587C46.9814 65.3099 50.4436 62.0306 51.5628 58.2031C52.4349 55.2206 51.9753 51.277 50.4521 48.6727C49.5579 47.1438 47.1748 44.9337 45.5119 44.0911C38.343 40.4583 29.5952 45.0134 28.3472 53.0289C27.3922 59.1634 31.7735 65.2693 37.9586 66.4236C39.8775 66.7818 41.0522 66.7438 43.0579 66.2587ZM37.5505 65.1577C37.0367 64.9138 36.6148 64.6357 36.613 64.5396C36.6061 64.2019 39.7774 58.1869 39.9625 58.1856C40.1788 58.1846 43.8097 64.5424 43.6715 64.6806C43.621 64.7312 43.0945 64.9502 42.5015 65.1674C41.038 65.7035 38.6911 65.6989 37.5505 65.1576V65.1577ZM31.8121 61.3227C30.3844 59.4509 29.8239 57.0517 30.7328 56.7029C31.3303 56.4736 37.715 56.4913 37.715 56.7222C37.715 56.8246 36.8425 58.306 35.7761 60.0144C33.8451 63.1079 33.8346 63.1187 33.1836 62.6921C32.824 62.4565 32.2069 61.8403 31.8121 61.3227V61.3227ZM44.223 59.8016C43.1945 58.1239 42.391 56.7198 42.4375 56.6813C42.4841 56.6429 44.2353 56.6725 46.3292 56.748L50.1362 56.8845L49.9787 57.8549C49.6075 60.1421 47.6495 62.852 46.3679 62.852C46.2168 62.8521 45.2516 61.4794 44.223 59.8016ZM39.2306 55.8149C37.9877 54.572 39.6793 52.3891 41.1425 53.3478C42.0371 53.934 42.2506 54.7701 41.7145 55.5882C41.1932 56.3838 39.9161 56.5004 39.2306 55.8149ZM29.883 52.7594C29.9915 51.8908 30.267 50.8092 30.4953 50.3558C31.0164 49.3211 32.2183 48.0206 32.6536 48.0206C33.0623 48.0206 37.5157 53.256 37.2949 53.4769C37.118 53.6537 32.4212 54.2461 30.7474 54.3027L29.6856 54.3386L29.883 52.7594ZM43.2089 53.6634C43.2089 53.542 47.0008 47.457 47.2276 47.2144C47.4411 46.9862 49.5764 49.2625 50.0995 50.2759C50.3889 50.8364 50.6256 51.787 50.6256 52.3882C50.6256 53.4491 50.5952 53.4845 49.5955 53.5891C48.0469 53.7511 43.2089 53.8074 43.2089 53.6634V53.6634ZM37.8614 48.1807C36.3553 45.6034 36.2969 45.4364 36.7778 45.0848C38.1535 44.0788 41.4525 43.9555 42.8308 44.8587L43.482 45.2853L41.8156 48.6097C40.3246 51.5839 40.1125 51.8799 39.8012 51.4195C39.6099 51.1365 38.737 49.679 37.8614 48.1807V48.1807ZM65.8711 61.3541C66.9287 61.1509 68.8034 60.7253 70.0373 60.4085C72.2597 59.8378 72.6177 59.8325 108.532 59.8325H144.783L144.963 58.5277C145.792 52.5283 147.96 46.434 150.461 43.0762C154.028 38.2861 158.665 35.9342 164.541 35.9342C175.398 35.9342 182.382 42.2687 184.254 53.8122C184.485 55.2348 184.674 57.4287 184.675 58.6874L184.676 60.976L185.706 60.3507C191.514 56.8247 194.677 54.2428 194.977 52.7836C195.287 51.2735 196.261 49.7939 197.713 48.63C199.191 47.4451 200.226 45.8317 199.957 45.1315C199.878 44.9234 199.427 44.5536 198.955 44.3098C198.484 44.066 197.739 43.4724 197.301 42.9907C196.507 42.1183 196.504 42.1003 196.496 38.4973L196.488 34.8799L194.908 33.6183C186.855 27.1859 166.489 23.0432 139.217 22.29L132.628 22.1081L130.153 20.3228C126.223 17.489 115.552 9.61122 112.844 7.54462C111.484 6.50713 109.692 5.3182 108.861 4.90254C104.061 2.50183 95.6724 0.920677 83.9268 0.202985C77.7212 -0.1762 55.6343 0.00712054 48.8401 0.494204C42.5412 0.945782 40.4306 1.57932 37.9101 3.77518C37.0979 4.48282 36.7465 4.56868 33.4573 4.86325C26.0087 5.53031 21.7828 6.08875 21.7828 6.40602C21.7828 6.57921 22.1036 7.02059 22.4957 7.38686C23.4811 8.30742 23.9184 9.23876 24.1362 10.8806L24.3223 12.2835L22.9999 13.0524C20.615 14.4393 16.7066 17.1298 14.1668 19.1333L11.6727 21.1007H8.32548H4.97827L5.20844 22.2682C5.56949 24.0995 5.43648 27.6889 4.94855 29.2808C4.7041 30.0784 4.35746 32.5506 4.17825 34.7747C3.81879 39.2356 3.77847 39.3322 1.79025 40.4974L0.557518 41.2198L0.71091 43.4528C0.825173 45.116 0.733298 46.2345 0.350975 47.8365C-0.00912729 49.3453 -0.0862433 50.1875 0.0926103 50.6579C0.363603 51.3707 2.70876 53.7892 3.12892 53.7892C3.26613 53.7892 3.37841 54.1572 3.37841 54.607C3.37841 55.1835 3.58808 55.5621 4.08939 55.8906C4.86194 56.3968 6.02627 56.4425 10.1084 56.127C12.5598 55.9375 12.591 55.9431 13.8167 56.7872C15.1881 57.7316 17.0262 58.3396 19.3106 58.6044L20.8214 58.7795L20.8335 55.2542C20.8477 51.1209 21.2585 49.2959 22.9564 45.8231C24.5542 42.5551 27.3755 39.7295 30.5942 38.1739C33.5073 36.7661 35.6779 36.246 39.5006 36.0402C43.1134 35.8456 45.7341 36.3109 48.4281 37.6253C50.6503 38.7095 53.9524 41.9311 55.4119 44.4388C57.6412 48.2692 59.3492 53.6696 59.9741 58.8635C60.1371 60.219 60.3302 61.3878 60.4031 61.4607C60.7059 61.7634 64.0841 61.6976 65.8711 61.3541H65.8711ZM185.933 51.2483C184.439 44.261 180.361 38.165 175.474 35.6137C172.246 33.929 170.768 33.6043 166.409 33.6227C162.268 33.6401 160.236 33.9985 156.972 35.2867C150.451 37.8608 145.627 44.0392 144.288 51.5303L143.933 53.5145L138.003 53.5067C121.407 53.4844 60.9673 52.6994 60.8003 52.504C60.6943 52.38 60.3932 51.4751 60.1312 50.493C59.5675 48.3801 57.6405 44.2055 56.368 42.3406C52.0203 35.9689 45.2105 32.8107 37.7698 33.7154C33.6567 34.2155 30.7785 35.3285 27.414 37.72C24.1067 40.0709 20.3541 44.887 18.5834 49.0533L17.8264 50.8343L15.6156 50.6711C14.3996 50.5814 11.4887 50.4359 9.14696 50.3478C6.8052 50.2597 4.61698 50.1319 4.28425 50.0637C3.27147 49.8562 1.93502 46.6898 1.7863 44.1453L1.66416 42.0553L5.61157 42.179C7.78266 42.247 10.2642 42.1868 11.1262 42.0462L12.6934 41.7899L12.8769 42.6391C13.1862 44.0707 14.3495 46.1037 15.663 47.508L16.9137 48.845L17.7742 46.7108C18.2475 45.537 19.2156 43.7029 19.9255 42.635C21.4951 40.274 24.8965 36.9682 27.1892 35.5754C30.6116 33.4964 35.4767 31.9035 39.2945 31.612L41.2861 31.4599V27.7225L41.286 23.9851L42.3161 23.1027L43.3463 22.2203L41.9728 22.1864C41.2174 22.1679 39.425 22.0008 37.9897 21.8152C35.621 21.509 36.3492 21.478 45.8808 21.4789C51.6561 21.4794 56.4426 21.4187 56.5174 21.3439C56.5922 21.2691 56.4645 19.4972 56.2338 17.4063L55.8142 13.6046L56.7222 12.6584C58.4343 10.8745 61.6627 9.67853 66.8741 8.89758C70.1003 8.41411 78.6498 8.0631 79.1245 8.39463C79.3517 8.55331 79.6643 10.8519 80.0515 15.2108C80.4018 19.1548 80.7594 21.8684 80.9448 21.9894C81.3062 22.2254 89.9067 22.2755 89.9067 22.0416C89.9067 21.9547 89.2237 19.362 88.3889 16.2801C86.7723 10.3117 86.724 9.58729 87.8914 8.82236C89.346 7.86927 97.1158 8.96244 103.229 10.9803C106.213 11.9651 111.936 14.7337 113.229 15.8176L114.164 16.6016L113.156 17.1963C112.602 17.5234 112.018 18.134 111.858 18.5532C111.553 19.3547 111.632 22.3035 111.978 23.0479C112.16 23.4386 111.385 23.5031 104.546 23.6654C100.347 23.7652 94.3949 23.847 91.3191 23.8473L85.7268 23.8478L85.9028 24.5492C87.2676 29.9867 87.4435 40.5171 86.2766 46.922L85.9513 48.7075L85.7518 47.4714C85.6421 46.7915 85.5429 44.0721 85.5314 41.4282C85.5198 38.7842 85.4295 33.7602 85.3306 30.2636L85.1509 23.9061L78.9446 23.7422C66.5086 23.4138 54.2139 22.9663 49.0794 22.6553L43.8247 22.337L43.2421 23.2259C42.7168 24.0274 42.6595 24.5024 42.6595 28.058V32.0012L44.239 32.3478C49.5222 33.5074 54.6969 36.9154 58.0575 41.4486C59.6119 43.5453 61.7026 47.5941 62.2093 49.4889L62.5514 50.7677H102.154H141.757L142.211 48.9135C142.461 47.8937 143.364 45.6378 144.218 43.9004C145.615 41.0581 146.034 40.4774 148.398 38.1076C150.644 35.8571 151.406 35.287 153.636 34.1905C157.693 32.1955 159.812 31.7328 165.035 31.7022C170.37 31.671 172.654 32.1174 176.417 33.9258C178.579 34.9654 179.374 35.5415 181.224 37.4121C184.359 40.5819 186.037 43.666 187.467 48.8853C188.157 51.4015 188.419 51.6566 190.817 52.1416C191.807 52.3419 192.328 52.5651 192.171 52.7221C191.814 53.0793 189.768 53.4489 187.95 53.4845L186.418 53.5147L185.933 51.2483ZM137.978 49.0302C137.978 48.3357 139.318 44.7307 140.361 42.6216C141.538 40.2405 143.61 37.8015 145.093 37.0506C146.206 36.4876 147.867 36.0686 147.867 36.3509C147.867 36.4531 147.136 37.3348 146.242 38.3102C143.874 40.8946 141.274 46.3503 141.274 48.7363C141.274 49.3572 141.182 49.3941 139.626 49.3941C138.441 49.3941 137.978 49.2919 137.978 49.0302V49.0302ZM134.326 45.1184C134.921 41.9326 134.987 33.9872 134.437 31.8138C133.909 29.7303 132.936 27.5931 131.785 25.9913C130.627 24.3797 131.296 24.5779 133 26.3514C136.861 30.3686 137.5 37.4246 134.745 45.612C134.352 46.7801 133.994 47.6991 133.949 47.6542C133.904 47.6094 134.074 46.4682 134.326 45.1184V45.1184ZM188.247 38.1138C186.289 37.7975 185.234 37.2344 182.341 34.9606C180.139 33.2302 176.316 31.1996 172.729 29.8552L170.259 28.9295L171.591 28.8445C172.323 28.7978 174.609 28.954 176.67 29.1915C185.505 30.2096 193.028 32.8443 194.4 35.4008C194.867 36.2708 194.881 36.459 194.535 37.1839C194.25 37.7788 193.892 38.0395 193.188 38.1642C191.647 38.4374 190.156 38.4222 188.247 38.1138V38.1138ZM7.4988 30.0612C6.40709 29.566 6.42905 28.1231 7.55393 26.4399L8.46021 25.0838L15.5336 25.0105C22.3425 24.9399 22.6069 24.9568 22.6069 25.4627C22.6069 26.7151 19.4912 28.5668 15.5767 29.6407C11.9305 30.641 9.1018 30.7883 7.49879 30.0611L7.4988 30.0612ZM88.1366 28.5422C88.0516 28.4048 88.0576 28.0958 88.1497 27.8555C88.2953 27.4761 89.049 27.4187 93.8856 27.4187C98.4255 27.4187 99.515 27.4926 99.7857 27.8187C99.9683 28.0387 100.038 28.3477 99.9405 28.5054C99.7177 28.8659 88.3585 28.9013 88.1366 28.5423L88.1366 28.5422ZM45.8883 27.6247C45.5344 26.6623 45.9094 26.5946 51.5937 26.5946C57.1965 26.5946 57.7282 26.684 57.3886 27.5692C57.1792 28.1148 46.0883 28.1683 45.8883 27.6247V27.6247ZM125.106 21.9659C118.182 16.2188 107.819 9.90797 102.357 8.11157C95.3774 5.81655 81.9698 5.36549 64.2229 6.82868C60.4331 7.14114 57.697 7.85803 49.9389 10.5712C38.4554 14.5873 32.4959 17.7425 32.4959 19.8062C32.4959 20.1982 32.6195 20.5953 32.7706 20.6887C33.4828 21.1289 32.9626 21.3971 31.7405 21.2198C26.1319 20.4062 29.0002 17.8768 42.4095 11.8116C44.7649 10.7462 47.7697 9.36966 49.087 8.75257C54.6888 6.12828 63.7951 4.75309 77.6829 4.43415C88.7488 4.18001 96.2447 4.84649 101.595 6.56023C105.012 7.65497 112.123 11.2764 116.964 14.3875C121.391 17.2327 127.591 21.7791 128.053 22.5192C128.337 22.9737 128.27 23.0236 127.374 23.0236C126.624 23.0236 126.067 22.7635 125.106 21.9659V21.9659ZM118.81 20.0972C118.631 19.7719 117.957 19.0635 117.312 18.5231C116.485 17.8297 116.284 17.5389 116.629 17.5351C118.142 17.5185 120.672 19.6473 120.672 20.9359C120.672 21.288 120.394 21.9303 120.054 22.3634L119.436 23.1508L119.286 21.9197C119.204 21.2427 118.99 20.4225 118.81 20.0972V20.0972ZM20.7082 19.6487C21.0992 19.3142 23.5715 17.1962 26.2021 14.9421C28.8327 12.688 31.2021 10.6594 31.4675 10.4342C32.2219 9.79393 32.3434 10.2624 31.6951 11.3114C31.1075 12.2622 28.1975 14.6153 23.0301 18.3181C20.3248 20.2566 19.3338 20.8246 20.7082 19.6487V19.6487ZM25.0792 7.81755C25.0792 7.21832 25.2174 7.15742 26.9411 6.99721C29.3752 6.77098 37.1898 6.53137 36.4789 6.70476C35.952 6.83329 26.1304 8.36899 25.4225 8.43353C25.2337 8.45074 25.0792 8.17356 25.0792 7.81755V7.81755ZM37.24 6.37603C37.3314 6.28472 37.5683 6.27499 37.7665 6.35432C37.9857 6.44202 37.9206 6.50711 37.6006 6.52028C37.311 6.53221 37.1488 6.46729 37.24 6.37601V6.37603ZM98.4222 4.3663C91.769 3.25427 89.0976 3.10781 75.76 3.12379C66.3245 3.13513 61.2968 3.26247 57.0809 3.59705C45.298 4.53217 46.7248 4.53293 45.6707 3.59118L44.7446 2.76373L45.8309 2.5899C51.7567 1.64159 65.9411 0.94019 75.2107 1.13711C85.0693 1.34654 91.6867 2.04186 98.1909 3.55172C100.597 4.11015 104.026 5.31926 102.405 5.03765C101.952 4.95885 100.16 4.65685 98.4222 4.36646V4.3663Z" fill="black"/>
</svg>