<?xml version="1.0" encoding="iso-8859-1"?>
<?xml-stylesheet type="text/css" href="../../pages/main/style.css" ?>
<svg width="201" height="75" viewBox="0 0 201 75" fill="none" xmlns="http://www.w3.org/2000/svg">
<path d="M45.3469 74.2769C49.9738 73.1002 53.8393 70.0976 55.9497 66.041C57.9853 62.128 58.3489 57.8552 56.9938 53.7723C56.5612 52.4691 55.9784 51.087 55.6986 50.701C55.4189 50.315 55.19 49.8788 55.19 49.7316C55.19 49.4232 52.0212 46.2522 50.8297 45.3684C49.7216 44.5463 47.0544 43.3803 45.3469 42.9714C43.3471 42.4926 39.8458 42.5367 37.835 43.066C31.7672 44.6634 27.2974 49.4397 26.0336 55.6768C25.2547 59.5209 26.162 64.1033 28.3566 67.4097C30.4567 70.5736 34.2293 73.2401 37.9645 74.2008C39.6407 74.6319 43.783 74.6746 45.3469 74.2769V74.2769ZM38.7313 71.3402C34.189 70.1738 30.6315 66.8331 29.2832 62.4678C28.6443 60.3993 28.6009 57.1144 29.1864 55.141C30.5092 50.6827 33.8994 47.2909 38.3353 45.988C39.9114 45.525 43.0868 45.4545 44.7791 45.8448C49.3868 46.9075 53.4201 50.9835 54.5321 55.701C56.735 65.0465 47.9775 73.7145 38.7313 71.3402H38.7313ZM45.9973 70.0945C46.8537 69.776 48.0843 69.1508 48.7319 68.7052C50.5122 67.4803 53.067 64.4804 51.9719 64.9006C50.8778 65.3205 46.9783 63.3452 44.0783 60.9022C43.3477 60.2868 43.2276 60.0441 43.3709 59.473C43.5303 58.8379 43.6474 58.7853 44.8985 58.7871C47.9852 58.792 51.5738 59.6865 52.8662 60.774C53.7209 61.4931 53.7701 61.4416 53.9808 59.6085C54.2457 57.3042 53.3038 53.6179 52.0243 51.9514C51.6701 51.4901 51.622 51.518 51.1318 52.4695C50.4756 53.7432 48.3212 55.4939 45.6756 56.9033L43.6165 58.0002L43.057 57.4047C42.3251 56.6256 42.3493 56.153 43.2578 53.482C44.1901 50.741 45.0623 49.2144 46.26 48.2271L47.1736 47.4741L45.5479 46.9777C43.3883 46.3183 39.7992 46.3219 37.8453 46.9855C36.6897 47.3779 36.5265 47.5011 36.9529 47.6589C37.73 47.9464 38.9802 49.4817 39.7333 51.0737C40.3386 52.3532 41.4614 55.9307 41.4614 56.5799C41.4614 56.726 41.1105 57.001 40.6815 57.1908C39.9743 57.5039 39.7993 57.476 38.8035 56.8921C36.0027 55.2496 33.6176 52.9733 32.9117 51.2692L32.5812 50.4714L31.7145 51.6905C30.412 53.5225 29.7667 55.4847 29.6098 58.0902L29.4722 60.3739L30.4465 59.7128C31.8712 58.746 32.941 58.5018 36.4508 58.3423L39.5997 58.1992L40.0029 58.9788C40.4761 59.8939 40.423 59.9617 38.094 61.4169C35.2159 63.2152 32.5345 64.1407 31.184 63.8017L30.5069 63.6318L31.1229 64.7279C32.3546 66.9194 34.7108 68.9276 37.337 70.0242L38.2637 70.4112L38.1498 69.0384C38.0121 67.3779 38.5366 65.4256 39.9127 62.4764C40.8326 60.5049 40.9692 60.3394 41.6774 60.3394C42.3964 60.3394 42.4871 60.4583 43.1101 62.2174C44.3349 65.6754 44.6486 67.7722 44.234 69.7293C44.1208 70.2635 44.1209 70.6945 44.2343 70.6871C44.3476 70.6793 45.1409 70.413 45.9973 70.0946V70.0945ZM166.184 74.1617C172.734 73.3812 177.818 69.4178 179.948 63.4314C180.858 60.8753 181.082 56.8452 180.451 54.3785C179.015 48.765 174.916 44.5222 169.163 42.694C167.047 42.0215 163.539 41.9665 161.033 42.5664C154.404 44.1532 149.244 50.3566 148.834 57.231C148.397 64.5809 153.702 71.8874 160.744 73.6317C162.467 74.0583 164.989 74.3041 166.184 74.1617V74.1617ZM162.117 70.9323C159.716 70.4316 157.525 69.2127 155.69 67.3561C152.994 64.6292 151.808 61.8124 151.808 58.1376C151.808 54.4613 152.996 51.6421 155.69 48.9232C159.74 44.8354 165.571 43.8914 170.717 46.4904C174.964 48.6356 177.591 52.6115 177.899 57.3605C178.454 65.9131 170.568 72.6948 162.117 70.9323V70.9323ZM168.778 69.7166C170.833 69.006 172.336 68.0003 173.95 66.2576L175.447 64.6403L173.991 64.3096C172.244 63.9129 170.79 63.1982 169.039 61.8771C166.33 59.8324 166.257 59.7485 166.46 58.9391L166.647 58.1954L168.751 58.3439C171.843 58.5622 174.404 59.2157 175.621 60.0977C176.198 60.5156 176.72 60.8574 176.781 60.8574C176.842 60.8574 176.969 60.1289 177.063 59.2385C177.263 57.3343 176.745 54.4954 175.886 52.7915C174.935 50.9051 174.879 50.8859 174.062 52.1736C173.162 53.5924 171.091 55.2301 168.585 56.505L166.702 57.4627L166.059 56.8277L165.417 56.1928L165.866 54.4454C166.463 52.1187 168.202 48.6248 169.165 47.8146C169.591 47.4558 169.94 47.1059 169.94 47.0369C169.94 46.9679 169.328 46.7003 168.58 46.4423C166.653 45.7773 162.804 45.835 160.874 46.5577C160.09 46.851 159.63 47.0995 159.852 47.11C160.338 47.1329 161.624 48.4693 162.38 49.7376C162.987 50.7558 164.5 55.1847 164.5 55.9418C164.5 56.2043 164.267 56.493 163.982 56.5835C163.697 56.6739 163.464 56.8596 163.464 56.9961C163.464 57.5919 159.505 55.0238 157.809 53.3284C157.192 52.7114 156.456 51.7526 156.173 51.1977C155.687 50.2451 155.632 50.2127 155.186 50.6159C154.494 51.242 153.199 54.0435 152.87 55.6248C152.713 56.3798 152.585 57.6413 152.585 58.4282V59.8589L153.268 59.3215C154.285 58.5218 156.297 58.0067 159.09 57.8314C162.088 57.6432 162.761 57.7835 163.17 58.683C163.343 59.0609 163.45 59.3973 163.409 59.4305C163.368 59.4635 162.619 59.9746 161.744 60.566C159.325 62.2016 156.853 63.2354 155.254 63.28C154.501 63.301 153.885 63.4348 153.885 63.5772C153.886 63.994 156.001 66.666 156.988 67.4984C158.16 68.4863 158.938 68.955 160.278 69.4814L161.366 69.9088L161.223 68.6857C161.041 67.1276 161.606 64.9365 162.935 62.0468C163.883 59.9861 164.015 59.8213 164.723 59.8213C165.445 59.8213 165.53 59.9384 166.257 61.9583C166.681 63.1336 167.17 64.9454 167.343 65.9844C167.63 67.6976 167.604 68.3381 167.19 69.7292C167.026 70.2833 167.141 70.2824 168.778 69.7166V69.7166ZM190.662 64.833C191.613 64.5196 192.216 64.1094 192.216 63.7758C192.216 63.0245 193.398 60.7045 194.069 60.1385C195.072 59.2924 197.524 55.5133 198.688 53.02C200.643 48.8328 200.959 45.6712 199.648 43.433C199.26 42.772 198.726 42.0791 198.461 41.8931C198.195 41.7072 197.798 41.0316 197.578 40.3918C195.715 34.9808 192.409 30.8063 188.46 28.8789C186.015 27.6854 185.99 27.6751 183.133 26.7044C179.692 25.5349 172.304 23.9738 167.609 23.424C166.825 23.3322 165.893 23.2123 165.536 23.1574C163.98 22.9176 156.582 22.27 153.621 22.1143C150.061 21.9271 150.668 22.1464 144.685 18.8843C134.58 13.3751 122.212 7.29433 117.75 5.64154C114.735 4.52486 107.099 3.36525 100.002 2.94649C97.7288 2.81235 97.1327 2.68485 96.3718 2.16992C95.1578 1.34832 92.9663 0.615732 90.6389 0.253431C88.5351 -0.0740567 39.2471 -0.0267037 38.1305 0.303848C37.0567 0.621771 35.2332 1.58291 34.4442 2.24681C33.7517 2.82951 33.233 2.93605 28.9577 3.3736C26.3607 3.63938 23.1286 4.03177 21.7752 4.24557C20.4218 4.45938 18.8482 4.70025 18.2783 4.78085C14.496 5.31582 14.5331 5.28482 15.9512 6.7246C17.0567 7.84692 17.1623 8.05671 17.0139 8.83498C16.8057 9.92634 15.7414 11.2663 12.1006 15.0209C10.5057 16.6657 8.72384 18.7101 8.14094 19.5641C7.55803 20.418 6.7213 21.5107 6.28152 21.9922C5.10658 23.2786 3.96893 25.5686 3.49971 27.5919C3.07065 29.4419 3.03657 33.3703 3.42805 35.8574C3.60667 36.9923 3.55355 37.2662 2.98968 38.1183C2.63678 38.6516 2.34807 39.1435 2.34807 39.2114C2.34807 39.2794 2.07186 39.742 1.73428 40.2394C0.996751 41.3263 0.502618 44.1738 0.445356 47.6672C0.395035 50.7362 0.664127 52.652 1.34253 54.055C1.78066 54.9611 2.15259 55.285 3.47065 55.9079C6.07071 57.1367 13.3081 59.1533 20.1677 60.5603L22.5523 61.0494V58.0932C22.5523 48.6047 26.8065 42.5956 35.1152 40.3478C36.8325 39.8832 37.9195 39.7849 41.4614 39.7738C45.1351 39.7622 46.0192 39.8416 47.7557 40.339C55.6726 42.6064 59.8533 48.4748 60.2972 57.9433L60.4459 61.1164H102.981H145.516L145.665 57.9433C145.991 50.9738 148.408 45.8759 152.871 42.7418C156.328 40.3138 159.709 39.4902 165.399 39.6899C169.463 39.8326 169.78 39.8842 172.214 40.8006C175.891 42.1844 178.902 44.8677 180.626 48.2945C182.369 51.7623 183.19 56.0003 183.131 61.2325C183.097 64.2817 183.137 64.6037 183.575 64.776C184.111 64.9867 190.051 65.0344 190.662 64.833V64.833ZM62.0594 56.7777C61.6 53.7585 59.3797 48.4766 57.4093 45.7154C54.9432 42.2595 51.3835 39.745 47.4191 38.6585C44.8244 37.9473 38.6244 38.0038 36.0056 38.7623C32.1124 39.8901 28.0879 42.1961 25.0007 45.0682L23.3107 46.6404L21.4421 46.4743C17.1763 46.0952 8.37397 44.3622 5.84491 43.4035C4.84423 43.0241 4.89737 43.0169 7.39909 43.1918C10.884 43.4355 17.0137 43.4214 18.2136 43.167C19.501 42.8939 19.4546 42.3541 18.084 41.662C16.8941 41.0611 12.3041 37.9372 12.0812 37.5765C12.0063 37.4553 12.9038 37.678 14.0756 38.0713C16.705 38.9539 21.2492 39.974 24.982 40.5196C27.422 40.8763 27.8565 40.8821 28.2199 40.5629C31.0281 38.0956 41.1153 36.1269 46.2706 37.04C54.8964 38.5678 61.595 44.5835 64.5002 53.4113L65.0759 55.1606L103.043 55.095L141.01 55.0294L141.629 53.2162C142.617 50.3237 143.267 46.733 143.435 43.2435C143.641 38.9548 143.229 35.392 141.831 29.3855C141.45 27.7509 142.419 29.6114 143.368 32.3385C144.917 36.7879 145.42 39.6947 145.415 44.1502C145.411 47.4843 145.317 48.3876 144.75 50.5165C144.113 52.9078 142.965 55.5491 141.914 57.0368L141.411 57.7492H101.809H62.2072L62.0594 56.7778V56.7777ZM191.386 55.794C191.122 55.2142 191.225 54.8487 192.234 52.7857C193.804 49.5744 194.29 49.2011 196.899 49.2011C198.498 49.2011 198.951 49.2823 198.951 49.5684C198.951 50.0637 196.645 55.195 196.217 55.65C195.831 56.0613 194.42 56.3804 192.794 56.4242C191.845 56.4497 191.644 56.3598 191.386 55.794V55.794ZM195.881 53.4486C196.249 52.6173 196.359 51.99 196.243 51.3764C195.94 49.7568 194.503 50.5168 194.132 52.4931C193.703 54.778 194.984 55.4774 195.881 53.4486V53.4486ZM94.1639 45.1214C94.1551 37.9467 94.0623 36.3442 93.1521 27.5686L93.045 26.5361L93.5251 27.5722C94.2226 29.0774 95.0106 32.272 95.498 35.5706C96.1885 40.244 95.7751 47.1914 94.5366 51.7267C94.3713 52.3321 94.222 52.8275 94.2049 52.8275C94.1878 52.8275 94.1694 49.3598 94.1639 45.1214H94.1639ZM193.771 40.2646C192.845 40.0609 191.074 39.8902 189.835 39.8852L187.583 39.8764L182.194 36.4009C179.229 34.4894 176.77 32.7594 176.728 32.5564C176.506 31.4764 179.066 31.0523 183.999 31.3517C187.764 31.5802 190.223 31.8539 190.051 32.0256C189.987 32.0896 187.427 32.1303 184.361 32.116C180.804 32.0994 178.728 32.1861 178.623 32.3556C178.349 32.7991 179.556 33.7011 183.818 36.2371C187.837 38.6286 187.927 38.6666 190.636 39.1089C193.627 39.5972 195.239 39.9938 195.843 40.3904C196.188 40.6172 196.188 40.645 195.843 40.6404C195.629 40.6375 194.697 40.4686 193.771 40.265V40.2646ZM193.877 38.0825C193.035 37.6658 191.613 37.1835 190.716 37.0105C189.208 36.7195 188.984 36.5825 187.701 35.1648L186.315 33.6335L183.502 33.4819C181.955 33.3985 180.544 33.2153 180.366 33.0746C179.472 32.3689 180.161 32.2888 185.676 32.4566L191.31 32.628L192.509 33.905C193.828 35.3096 195.965 38.84 195.496 38.84C195.447 38.84 194.719 38.4991 193.877 38.0825V38.0825ZM184.561 36.3495C183.286 35.5496 182.011 34.6614 181.726 34.3756L181.208 33.8561L183.131 34.0228C184.189 34.1144 185.192 34.304 185.361 34.4439C185.53 34.5838 186.158 35.397 186.757 36.251C188.185 38.2877 187.685 38.3101 184.561 36.3495V36.3495ZM47.0303 29.2349C46.4925 26.9509 46.6329 25.7064 47.5463 24.6591L48.1686 23.9458L47.8052 24.9819C47.296 26.4339 47.33 27.1932 48.0667 30.8101C48.4228 32.5588 48.7085 34.0611 48.7016 34.1483C48.6673 34.5778 47.436 30.9578 47.0303 29.2349V29.2349ZM5.7496 33.5017C5.41224 33.4321 5.18041 33.3309 5.23442 33.2769C5.28846 33.2229 6.41249 32.9914 7.73233 32.7624L10.132 32.346L14.0756 29.4284C16.2446 27.8236 18.4071 26.2398 18.8811 25.9087C19.3551 25.5776 19.6465 25.2116 19.5287 25.0952C19.4108 24.9789 17.1289 24.801 14.4576 24.6999C11.7864 24.5988 9.60084 24.4343 9.60084 24.3345C9.60084 24.091 13.6587 23.8163 17.2533 23.8163C19.6771 23.8163 20.2605 23.8948 20.7433 24.2856C21.1439 24.61 21.2702 24.9101 21.1522 25.257C21.0583 25.5331 18.5665 27.5899 15.6149 29.8277L10.2484 33.8963L8.30569 33.7623C7.2372 33.6885 6.08696 33.5713 5.7496 33.5017V33.5017ZM97.439 32.7856C97.2766 32.59 97.2165 32.2403 97.3054 32.0085C97.4469 31.6399 98.081 31.5871 102.369 31.5871C106.506 31.5871 107.295 31.6483 107.421 31.979C107.504 32.1945 107.428 32.5442 107.252 32.7561C106.8 33.3005 97.8885 33.3273 97.439 32.7856V32.7856ZM4.16123 31.1986V30.551L7.46385 30.5589L10.7665 30.5667L10.0397 31.2061C9.37105 31.7943 9.10689 31.8455 6.73708 31.8455C4.1622 31.8455 4.16123 31.8452 4.16123 31.1979V31.1986ZM51.0482 30.9429C50.8724 30.731 50.7962 30.3813 50.8789 30.1658C51.0999 29.5898 59.9815 29.5795 60.2023 30.155C60.2828 30.3646 60.1703 30.7143 59.9525 30.9321C59.3772 31.5074 51.5246 31.5169 51.0482 30.9429ZM5.48875 28.0579C4.85481 27.9311 4.67929 27.7626 4.67929 27.2808V26.6656H9.98938C13.0346 26.6656 15.2995 26.7669 15.2995 26.903C15.2995 27.0336 14.9789 27.3796 14.5871 27.6719C13.9462 28.1501 13.4951 28.2042 10.0865 28.2116C8.00295 28.2165 5.93396 28.147 5.48875 28.0579V28.0579ZM108.679 24.8412C92.9948 24.614 82.1385 24.2382 74.2286 23.6487C73.0889 23.5639 68.7178 23.2908 64.515 23.0421C60.3123 22.7934 57.573 22.5761 58.4278 22.5593C59.2826 22.5424 61.9636 22.6365 64.3855 22.7685C66.8074 22.9004 70.4209 23.0743 72.4154 23.155C74.4099 23.2357 79.8884 23.4697 84.5898 23.675C94.9515 24.1275 132.107 24.439 130.956 24.0637C129.902 23.7198 129.43 23.3195 128.924 22.3397C128.392 21.3102 128.378 20.1939 128.884 18.9843C129.097 18.4728 129.272 17.9551 129.272 17.8338C129.272 17.384 122.078 12.8663 118.803 11.2592C113.628 8.72001 109.961 7.49286 104.535 6.48401C101.297 5.882 100.251 5.75011 97.1527 5.55339C95.9417 5.47654 94.4264 5.34086 93.7853 5.25198C93.1442 5.16308 88.8314 5.01125 84.2012 4.91455L75.7828 4.73874L82.3027 4.6934C85.8886 4.66853 90.6094 4.76292 92.7933 4.90327C94.9773 5.04361 97.8132 5.22192 99.0954 5.29951C108.284 5.85557 117.75 9.20562 126.482 14.9908C128.424 16.277 130.081 17.4414 130.166 17.5784C130.25 17.7154 130.084 18.2133 129.797 18.6849C129.222 19.6276 129.099 21.4535 129.552 22.301C129.939 23.0237 131.343 23.5572 132.859 23.5572C134.365 23.5572 134.648 23.2874 134.759 21.7469L134.841 20.5943L137.302 22.9923L139.763 25.3903L133.287 25.2471C129.726 25.1682 118.652 24.9856 108.679 24.8412V24.8412ZM136.798 23.4421L135.668 22.2908L135.255 23.1016C134.994 23.6129 134.507 24.0309 133.935 24.2332C133.093 24.531 133.203 24.5554 135.478 24.5736L137.928 24.5933L136.798 23.4421ZM100.844 23.6536C98.5901 23.5555 97.4117 23.4054 97.4117 23.2165C97.4117 23.0582 96.8815 19.4972 96.2336 15.303C95.5856 11.1088 95.1157 7.52015 95.1893 7.32826C95.3763 6.84106 98.8527 6.87032 102.892 7.39306C110.659 8.39816 118.913 11.5153 125.983 16.1129C128.124 17.5048 128.741 18.0303 128.61 18.3488C128.515 18.5778 128.379 19.2897 128.306 19.9308C128.211 20.7764 127.943 21.3454 127.33 22.003C126.865 22.5017 126.346 23.1792 126.177 23.5087L125.869 24.1077L115.073 23.9554C109.134 23.8716 102.732 23.7358 100.844 23.6536V23.6536ZM145.903 22.8769C143.201 22.4162 144.328 23.0129 127.848 13.3191C125.853 12.1459 122.852 10.3982 121.18 9.43526C117.604 7.3772 117.157 6.97893 118.426 6.9804C119.57 6.98138 124.946 9.67677 141.835 18.7163C145.824 20.8513 149.318 22.7556 149.599 22.9482C150.075 23.2742 150.05 23.2982 149.242 23.2982C148.765 23.2982 147.263 23.1086 145.903 22.8769V22.8769ZM75.5237 22.5054C68.1155 22.0623 61.7843 21.5923 61.4545 21.4608C60.5949 21.1181 58.2393 16.1225 58.0903 14.3265C57.9625 12.7848 58.569 11.2338 60.5329 8.08026L61.7025 6.2023H74.8946C87.3297 6.2023 88.0867 6.22854 88.0867 6.6596C88.0867 6.91112 88.4363 10.7074 88.8637 15.0959C89.2911 19.4843 89.6408 23.1251 89.6408 23.1865C89.6408 23.3534 89.9756 23.3696 75.5237 22.5054V22.5054ZM53.1756 22.3328C53.7061 22.2772 54.6386 22.2764 55.2479 22.3309C55.8571 22.3856 55.4231 22.4311 54.2834 22.4321C53.1436 22.433 52.6452 22.3882 53.1756 22.3326V22.3328ZM50.2036 22.0906C50.3817 22.0187 50.6731 22.0187 50.8512 22.0906C51.0293 22.1624 50.8836 22.2212 50.5274 22.2212C50.1713 22.2212 50.0256 22.1624 50.2036 22.0906V22.0906ZM49.0434 22.1056C49.1295 22.0196 49.3529 22.0104 49.5399 22.0852C49.7465 22.1679 49.6852 22.2292 49.3834 22.2417C49.1103 22.2529 48.9573 22.1916 49.0434 22.1056V22.1056ZM40.6451 18.3782C39.5723 18.3773 39.2671 18.2303 37.8605 17.0408C36.9917 16.306 36.2808 15.5961 36.2808 15.4631C36.2808 15.3301 37.5115 13.7748 39.0156 12.0069C41.5671 9.00791 41.8143 8.79059 42.7067 8.76246C43.2328 8.74591 45.3827 8.65846 47.4843 8.56818C49.5859 8.47792 51.3052 8.44997 51.305 8.50611C51.3047 8.56221 50.2028 10.6604 48.8562 13.1686C47.5096 15.6769 46.3255 17.949 46.2247 18.2177C46.0586 18.6605 45.8456 18.6909 43.9457 18.543C42.7931 18.4532 41.3078 18.3792 40.6451 18.3783V18.3782ZM13.2731 14.8571C16.7668 10.8895 18.4078 8.81335 18.4078 8.36111C18.4078 8.14287 18.2177 7.56369 17.9854 7.07405C17.753 6.58442 17.6078 6.13891 17.6627 6.08405C17.819 5.92773 22.2933 7.0041 22.2933 7.19804C22.2933 7.34426 20.4385 9.05676 11.9469 16.7507C11.4401 17.2099 10.9879 17.5887 10.9419 17.5926C10.8958 17.5965 11.9449 16.3655 13.2731 14.8571ZM71.6383 1.9067C57.0055 1.74628 46.9141 1.9304 39.4131 2.49475C36.9761 2.6781 36.7735 2.39734 38.7088 1.5185C39.73 1.05476 40.8993 1.03291 64.9035 1.02886C81.5775 1.02592 90.3779 1.11579 91.0655 1.29566C92.4726 1.66376 93.5262 2.08663 93.5267 2.28352C93.5269 2.3731 92.1573 2.3639 90.4831 2.26316C88.8089 2.16239 80.3287 2.00199 71.6383 1.90672V1.9067Z" fill="#010101"/>
</svg>
