<?xml version="1.0" encoding="iso-8859-1"?>
<?xml-stylesheet type="text/css" href="../../pages/main/style.css" ?>
<svg class="carTesla"  width="101" height="36" viewBox="0 0 101 36" fill="none" xmlns="http://www.w3.org/2000/svg">
<path d="M85.004 35.3197C86.835 34.8369 88.5681 33.5497 89.4899 31.9881C90.9037 29.593 90.871 26.6957 89.4046 24.4281C87.9813 22.2272 85.8064 21.0248 83.2649 21.0336C79.9032 21.0453 77.1043 23.2206 76.2233 26.5061C75.983 27.4023 75.9939 29.1442 76.2457 30.1106C77.224 33.8644 81.309 36.294 85.004 35.3197ZM81.6181 33.9962C78.7586 33.1291 76.8991 30.2168 77.3812 27.3605C77.9732 23.8523 81.391 21.6122 84.7982 22.4992C87.0529 23.0862 88.7814 25.0355 89.1802 27.4412C89.6346 30.1819 87.8641 32.989 85.0726 33.9537C84.237 34.2425 82.5007 34.2639 81.6181 33.9962V33.9962ZM85.0994 33.5258C86.0042 33.2042 86.8429 32.6207 87.5445 31.8245L88.1072 31.1858L87.5125 31.0996C86.8023 30.9965 86.2784 30.7428 85.2047 29.9816C84.1355 29.2236 83.925 28.9752 84.0257 28.5903C84.1058 28.2841 84.131 28.2795 85.2362 28.3692C86.61 28.4806 87.9202 28.867 88.3857 29.2982L88.7316 29.6187L88.819 28.7978C88.9259 27.7926 88.6255 26.3728 88.1255 25.5201L87.779 24.9291L87.6142 25.3207C87.3719 25.8967 86.2132 26.8764 85.0919 27.4533L84.109 27.959L83.8028 27.6739L83.4967 27.3889L83.8633 26.2121C84.3109 24.7758 84.4827 24.4335 85.0972 23.7536C85.3609 23.4619 85.5443 23.191 85.5048 23.1515C85.3355 22.9823 83.9423 22.6985 83.2737 22.6971C82.8738 22.6961 82.1997 22.7928 81.7757 22.9117L81.0048 23.1279L81.4611 23.558C81.9928 24.0592 82.6045 25.2842 82.938 26.5155C83.166 27.3576 83.1655 27.3877 82.9178 27.575C82.5366 27.8633 82.4364 27.8335 81.3536 27.1097C80.246 26.3693 79.4326 25.545 79.2266 24.9544L79.0909 24.5654L78.8387 24.886C78.1156 25.8047 77.5053 27.8655 77.7122 28.6895C77.7857 28.9819 77.8125 28.9918 78.0207 28.8034C78.3681 28.4892 78.9368 28.3106 80.0316 28.1718C81.4211 27.9958 82.416 28.1252 82.5187 28.4954C82.6242 28.8755 82.0678 29.3417 80.6539 30.0583C79.8169 30.4824 79.3954 30.6169 78.8785 30.6247L78.2007 30.635L78.4103 31.04C78.7385 31.6743 80.0566 32.9058 80.7551 33.2308C81.5841 33.6164 81.7093 33.6084 81.6008 33.1763C81.4666 32.6419 81.7643 31.4383 82.3329 30.2165C82.8048 29.2023 82.8778 29.1134 83.2385 29.1134C83.6108 29.1134 83.6496 29.1697 84.0006 30.2165C84.4177 31.4604 84.5858 33.0576 84.3466 33.5042C84.1635 33.8462 84.195 33.8471 85.0994 33.5258L85.0994 33.5258ZM22.0616 35.3757C23.1547 35.1704 24.8066 34.2944 25.6325 33.482C26.4559 32.672 27.1994 31.524 27.5523 30.5173C27.8529 29.6598 27.9571 27.6507 27.7522 26.6639C27.2766 24.3744 25.4262 22.2836 23.1016 21.4091C20.5202 20.438 17.5996 21.0932 15.5792 23.0966C14.1254 24.5383 13.3905 26.2798 13.3996 28.2615C13.4086 30.2091 14.0855 31.8374 15.4849 33.2775C17.2038 35.0465 19.6536 35.8281 22.0616 35.3757ZM19.3345 34.0525C17.6526 33.665 16.1205 32.457 15.3599 30.9189C14.1829 28.5387 14.536 26.1037 16.3405 24.1556C17.4127 22.9981 18.6452 22.4177 20.2214 22.3278C22.1533 22.2178 23.7415 22.8303 24.9938 24.1684C27.1712 26.495 27.1274 30.1514 24.8954 32.3822C24.16 33.1172 22.9171 33.8397 22.0276 34.0493C21.3341 34.2127 20.0365 34.2143 19.3345 34.0523V34.0525ZM22.8213 33.3408C23.6926 32.9826 24.4774 32.3998 24.9863 31.733C25.4062 31.1827 25.4168 31.119 25.0884 31.119C24.3966 31.119 22.955 30.3419 21.8072 29.3502C21.3792 28.9805 21.307 28.8486 21.3897 28.5882C21.4874 28.2806 21.5165 28.2752 22.6452 28.3553C23.9998 28.4515 24.9008 28.6975 25.6052 29.1634L26.1129 29.4992L26.201 28.795C26.305 27.9624 26.0256 26.4576 25.6189 25.6609C25.2796 24.9962 25.1167 24.8831 25.0051 25.2347C24.7953 25.8954 23.1236 27.2536 21.8935 27.7629C21.5232 27.9161 21.4534 27.9038 21.1879 27.6385C20.895 27.3457 20.8946 27.339 21.1228 26.4964C21.4314 25.3569 21.9969 24.1967 22.5097 23.6507C22.7415 23.404 22.9312 23.1806 22.9312 23.1545C22.9312 23.1284 22.6192 23.0144 22.238 22.9012C21.3503 22.6378 19.9622 22.6382 19.0728 22.9022L18.3766 23.1089L18.8296 23.5373C19.3705 24.0489 19.8548 24.9697 20.2404 26.2194C20.5909 27.3555 20.5936 27.2984 20.1767 27.5714C19.8381 27.7932 19.813 27.787 19.073 27.3015C17.7882 26.4586 17.1852 25.9064 16.7856 25.207L16.4015 24.5348L16.0481 25.0685C15.8538 25.362 15.5776 25.9103 15.4345 26.2868C15.1722 26.9768 14.9215 28.8461 15.0913 28.8461C15.1416 28.8461 15.408 28.7312 15.6833 28.5908C16.324 28.2642 17.523 28.0433 18.6414 28.0459C19.615 28.0484 19.7764 28.1104 19.9089 28.5349C19.9835 28.7739 19.8929 28.8986 19.3975 29.2393C18.2896 30.0011 16.9073 30.5842 16.2092 30.5842H15.5665L15.7871 31.0105C16.124 31.6617 17.3215 32.7895 18.0885 33.178C18.9728 33.6258 19.0497 33.6173 18.9626 33.0811C18.8677 32.4964 19.2046 31.2158 19.7818 29.967C20.212 29.0365 20.2746 28.9643 20.6176 29.0039C20.9548 29.0427 21.0229 29.15 21.3669 30.1831C21.8044 31.4969 21.9726 32.9336 21.7399 33.3683C21.6067 33.617 21.6188 33.659 21.8228 33.6563C21.9541 33.6543 22.4035 33.5126 22.8213 33.3408V33.3408ZM94.3497 29.975C96.5501 29.6925 99.4286 29.1021 99.5976 28.8986C99.6827 28.7961 99.7299 28.7125 99.7025 28.7127C99.6751 28.7129 99.0335 28.8332 98.2767 28.9801C96.6244 29.3007 95.4627 29.3316 95.3575 29.0576C95.3175 28.9534 95.3645 28.7222 95.462 28.544C95.6948 28.1185 97.7221 25.8277 97.9804 25.6983C98.0908 25.643 98.6302 25.5012 99.179 25.3831C100.153 25.1736 100.179 25.1573 100.279 24.7008C100.335 24.4436 100.345 23.6014 100.301 22.8292C100.232 21.635 100.173 21.3617 99.9031 20.9997C99.7286 20.7656 99.5858 20.3991 99.5858 20.1853C99.5858 19.578 98.7986 18.1504 98.0545 17.4084C95.8732 15.2329 88.4773 13.027 78.984 11.7202C76.5161 11.3805 77.1216 11.6074 71.3587 8.863C68.0212 7.2736 64.8618 5.65088 61.7267 3.91585C60.5862 3.28469 59.181 2.61821 58.6039 2.43477C54.3598 1.08562 46.2481 0.504278 37.2454 0.904084C34.102 1.04368 30.0843 1.35328 28.4829 1.5793C24.3628 2.16086 17.728 4.46269 10.2223 7.91448C8.84693 8.547 8.37395 8.68406 5.76041 9.20741C2.90567 9.77908 2.83222 9.80202 2.63451 10.184C2.48586 10.4712 1.81696 13.9458 1.79605 14.5394C1.79456 14.5762 2.36682 14.5871 3.06731 14.5636L4.34093 14.5209L4.66674 13.8783L4.99256 13.2357L3.88528 12.3586C2.66943 11.3956 2.41475 11.1379 2.48399 10.9408C2.50932 10.8686 3.12337 11.1928 3.84853 11.6613C4.57369 12.1298 5.34125 12.5852 5.55421 12.6734C5.76717 12.7615 5.94141 12.8899 5.94141 12.9585C5.94141 13.0272 5.62938 13.5696 5.24802 14.1638L4.55462 15.2441L3.18867 15.1559L1.82273 15.0676L1.73612 16.174C1.58527 18.1009 1.5461 18.2327 0.915962 18.9332L0.328125 19.5867L0.364754 22.2104L0.401375 24.8341L1.21729 25.7449C2.00397 26.6231 2.07571 26.6685 3.21811 27.0114C4.61097 27.4295 6.44399 27.7832 9.21898 28.1693C10.3226 28.3229 11.4124 28.4788 11.6406 28.5159L12.0555 28.5832L12.1393 27.6115C12.4669 23.8081 14.5012 20.7602 17.3902 19.744C18.5261 19.3445 20.5487 19.2546 22.0002 19.5391C23.3904 19.8116 25.0174 20.5855 25.9763 21.4304C27.7649 23.0061 29.0487 25.6658 29.4957 28.7215L29.6509 29.7819L30.7391 29.7849C31.3377 29.7864 40.0447 29.8754 50.0881 29.9825C60.1314 30.0896 69.7696 30.1785 71.5062 30.1801L74.6637 30.1831L74.749 29.08C74.906 27.0512 75.6051 25.064 76.7921 23.2732C77.9133 21.5815 79.2121 20.5705 80.9713 20.02C82.0331 19.6878 84.2944 19.656 85.4776 19.9566C89.2154 20.9062 91.4091 24.0042 91.6539 28.6789L91.7327 30.1831L92.3482 30.168C92.6868 30.1598 93.5875 30.0729 94.3497 29.9751L94.3497 29.975ZM32.4518 28.7734C31.2228 28.4086 30.9889 28.0914 29.0664 24.1829C26.4882 18.9414 25.0775 16.0102 25.133 16.0102C25.1601 16.0102 25.4212 16.4464 25.7134 16.9795C26.0057 17.5127 26.5427 18.4904 26.9068 19.1523C27.2709 19.8141 27.858 20.8971 28.2115 21.559C28.5649 22.2208 28.9584 22.9429 29.086 23.1635C29.2135 23.3841 29.5747 24.0459 29.8886 24.6342C31.2847 27.2508 31.3681 27.3743 31.932 27.6619C32.2317 27.8147 32.8124 27.9648 33.2224 27.9955C33.6324 28.0262 40.8908 28.2054 49.3523 28.3937C72.3015 28.9045 72.4275 28.9333 51.818 28.9576C35.337 28.9771 33.0653 28.9556 32.4518 28.7734ZM8.45061 27.7016C7.47522 27.5134 5.68388 27.1204 4.46985 26.8284C2.55584 26.3679 2.19141 26.2374 1.72741 25.8459C1.43309 25.5977 1.22289 25.3634 1.26029 25.3253C1.29771 25.2872 1.68898 25.341 2.12984 25.4449C3.34006 25.73 6.49357 26.0333 9.2427 26.1289L11.698 26.2143L11.5975 26.6945C11.5423 26.9586 11.5007 27.3702 11.5051 27.6092C11.5132 28.0405 11.5081 28.0437 10.8686 28.0437C10.5141 28.0437 9.42599 27.8898 8.45061 27.7016ZM51.0245 27.3703C42.2218 27.2197 35.1407 27.0111 32.9756 26.8386C31.5195 26.7227 31.1201 26.584 31.3184 26.2634C31.4388 26.0686 32.5542 25.6135 33.5222 25.3642C34.3829 25.1425 35.0336 25.1547 52.0504 25.7107C61.7502 26.0277 69.9838 26.3197 70.3472 26.3598C71.0959 26.4424 72.2605 26.9661 72.6418 27.3917L72.8971 27.6768L65.74 27.5882C61.8036 27.5396 55.1816 27.4415 51.0245 27.3703ZM4.00163 25.2213C2.05222 25.0221 0.898056 24.7368 0.658516 24.395C0.295975 23.8777 0.626266 23.8395 2.28952 24.2065C4.25483 24.6402 6.51935 25.0451 7.7474 25.1824C8.50107 25.2666 8.60551 25.3038 8.28251 25.3729C7.79568 25.477 5.81871 25.407 4.00163 25.2213ZM92.5062 24.2184C90.5453 19.8595 86.9996 17.7451 82.5229 18.2653C80.3218 18.521 78.7763 19.1303 77.2078 20.3607C76.7852 20.6921 76.2596 21.2117 76.0396 21.5152C75.5248 22.2254 75.5155 22.0527 76.0288 21.3157C77.7237 18.8819 80.5171 17.6037 84.2013 17.5763C85.9969 17.5629 86.9873 17.7782 88.4751 18.5054C90.357 19.4252 92.3736 21.8319 93.1834 24.1245L93.4913 24.9963L94.2309 24.9199C94.6376 24.8778 96.1142 24.8043 97.5122 24.7565C99.5614 24.6864 100.023 24.7024 99.8936 24.839C99.6191 25.1289 98.8137 25.2046 95.84 25.2204L92.9638 25.2356L92.5062 24.2184ZM73.0199 24.6008C73.4248 22.1049 73.4328 17.4479 73.0354 15.4844C72.9248 14.9379 72.8524 14.4727 72.8745 14.4506C72.9463 14.3789 73.3477 15.3886 73.5742 16.2107C73.9162 17.4519 73.9822 20.4471 73.7063 22.2055C73.4854 23.614 73.1508 24.9685 73.0238 24.9685C72.9888 24.9685 72.987 24.803 73.0198 24.6008H73.0199ZM48.2134 21.4253C48.2104 20.3222 48.1203 18.2163 48.0136 16.7456C47.7787 13.5067 47.7785 13.5857 48.0192 14.0287C48.7925 15.452 49.0486 20.0141 48.5354 23.2219C48.3651 24.2862 48.2194 23.4728 48.2134 21.4253H48.2134ZM10.733 23.6555C10.6092 23.6055 10.3336 23.3239 10.1207 23.0298C9.90768 22.7356 9.41782 22.3234 9.03207 22.1138C8.40262 21.7718 8.1414 21.7208 6.48465 21.6172C3.85554 21.4527 2.01176 21.0347 1.35952 20.4553C0.971786 20.1109 1.09299 20.0407 1.69396 20.2617C2.11687 20.4173 3.085 20.4951 5.47318 20.5656C7.23904 20.6177 8.86796 20.7197 9.09299 20.7922C9.71812 20.9935 10.2629 21.3013 10.5443 21.6122C10.7243 21.8109 10.9594 21.8931 11.3467 21.8927C11.8523 21.8922 11.9382 21.8357 12.4619 21.1579C12.774 20.754 13.4061 20.1461 13.8666 19.8069C15.675 18.475 17.3477 17.8962 19.6536 17.8046L21.1252 17.7461L19.7742 18.0692C18.0178 18.4893 16.6146 19.0812 15.4692 19.8851C14.3185 20.6928 13.6052 21.4949 12.9795 22.685C12.712 23.1939 12.4186 23.6404 12.3275 23.6772C12.084 23.7756 10.9936 23.7607 10.733 23.6555ZM95.6846 20.4247C95.3531 20.2052 94.4925 19.4186 93.772 18.6765C92.7684 17.6427 92.4988 17.2905 92.6193 17.1701C92.8159 16.9737 96.1586 16.974 96.6348 17.1705C96.9032 17.2812 96.7179 17.3293 95.5953 17.4404C94.844 17.5147 94.1885 17.6162 94.1387 17.666C94.0888 17.7158 94.5553 18.2662 95.1752 18.889L96.3023 20.0214L97.1748 20.0274C97.6547 20.0309 98.2279 20.1161 98.4487 20.2171C98.8487 20.4002 98.8476 20.4008 98.1142 20.4163C97.7095 20.4249 97.2279 20.5179 97.044 20.623C96.5596 20.8998 96.3578 20.8703 95.6846 20.4246V20.4247ZM74.6362 16.9461C74.6362 16.6666 74.7076 16.605 75.0719 16.5699C75.5346 16.5253 75.7402 16.7586 75.5879 17.1552C75.5326 17.2992 75.372 17.3513 75.0719 17.3224C74.7076 17.2872 74.6362 17.2257 74.6362 16.9461ZM49.0398 15.8256C49.0132 15.6874 49.0727 15.5228 49.1719 15.46C49.2711 15.3972 50.3231 15.3448 51.5098 15.3437C53.2579 15.3422 53.6986 15.3793 53.8324 15.5405C53.9232 15.6499 53.962 15.8318 53.9187 15.9447C53.8511 16.1207 53.4997 16.1448 51.464 16.1136C49.2607 16.0797 49.0846 16.0588 49.0398 15.8256ZM86.9772 15.5205C87.0692 15.4834 87.2197 15.4834 87.3117 15.5205C87.4036 15.5576 87.3284 15.588 87.1444 15.588C86.9605 15.588 86.8852 15.5576 86.9772 15.5205ZM84.3351 15.2748C83.2682 15.1689 81.9919 15.0804 81.4989 15.0782C79.358 15.0687 77.7959 14.3237 77.1619 13.0099C77.0315 12.7397 77.0234 12.6723 77.1381 12.8116C77.5886 13.3587 78.6686 14.0218 79.4943 14.2582C79.9862 14.399 81.2616 14.6149 82.3284 14.738C84.2484 14.9594 87.0587 15.4395 86.5424 15.4579C86.3953 15.4631 85.402 15.3807 84.3351 15.2748H84.3351ZM25.9412 15.0742V14.74L28.2299 14.7035C30.6315 14.6652 30.9459 14.7349 30.744 15.2609C30.669 15.4562 30.3897 15.4772 28.3002 15.4449L25.9412 15.4085V15.0742ZM57.1782 12.5257C31.011 11.6539 22.4848 11.3259 22.3144 11.1845C22.2202 11.1064 22.0423 10.7388 21.9189 10.3677C21.5683 9.31258 21.7646 8.87103 23.1028 7.70463C26.5153 4.73032 30.4765 3.16072 36.4427 2.41877C38.6182 2.14823 45.6983 2.11508 48.7503 2.36114C58.338 3.13413 64.3813 5.64324 71.1246 11.6507C71.842 12.2898 72.4289 12.8749 72.4289 12.9509C72.4289 13.043 71.8822 13.0617 70.7901 13.0069C69.8888 12.9617 63.7635 12.7451 57.1782 12.5257ZM69.4948 11.1946C66.2782 8.66231 64.6837 7.59278 62.4486 6.46828C57.9603 4.21025 53.237 3.13607 46.1261 2.75623C37.724 2.30742 29.8488 3.7661 25.4452 6.58677C23.1509 8.05639 22.1952 9.68276 23.1987 10.4098C23.5084 10.6342 25.2143 10.7068 46.2085 11.3896C58.6799 11.7951 69.3093 12.1439 69.8293 12.1646L70.7748 12.2023L69.4948 11.1946ZM56.9888 11.1921C52.8746 11.0476 49.4896 10.9105 49.4665 10.8874C49.3703 10.7913 47.5447 3.26498 47.6033 3.20639C47.7135 3.09619 50.7457 3.4482 52.5629 3.78218C58.1301 4.80536 61.9333 6.4769 64.857 9.18551C65.5848 9.85978 66.8102 11.2831 66.8102 11.4542C66.8102 11.5147 66.2835 11.5396 65.6397 11.5095C64.9959 11.4795 61.103 11.3367 56.9888 11.1921ZM34.3991 10.5383C31.6196 10.4798 29.3116 10.3981 29.2701 10.3566C29.1814 10.2679 28.8872 5.33287 28.966 5.25415C29.2226 4.99772 35.2355 3.70484 37.7805 3.35889C39.3417 3.14667 44.0842 3.01248 44.2479 3.1759C44.3039 3.23173 45.1383 10.2599 45.1383 10.6755C45.1383 10.7484 43.9857 10.767 42.2955 10.7214C40.732 10.6792 37.1786 10.5968 34.3991 10.5383V10.5383ZM9.63338 8.92333C9.56242 8.8524 9.53043 8.77411 9.56232 8.74935C9.59422 8.72457 11.0952 8.12471 12.8978 7.41629C14.7005 6.70788 17.9513 5.4271 20.1218 4.57013C25.4706 2.45832 25.0025 2.60887 25.2772 2.91221C25.5578 3.22215 26.5396 2.78085 17.7138 6.31173C10.5509 9.17737 10.0497 9.33937 9.63338 8.92333ZM98.3149 28.3337C99.1676 28.1305 99.2722 28.068 99.4846 27.634C99.6129 27.3719 99.7565 26.8755 99.8038 26.5309C99.902 25.8148 99.7928 25.7585 98.9711 26.1017C98.5143 26.2924 97.2906 27.4557 96.7531 28.2102L96.4907 28.5786L96.9345 28.5676C97.1787 28.5616 97.7998 28.4564 98.3149 28.3337V28.3337Z" fill="black"/>
</svg>

